# xmcd CD database file
#
# Track frame offsets:
#	182
#	26475
#	53277
#	65252
#	82437
#	105072
#	115852
#	128385
#	158787
#	167797
#	181247
#	193477
#	211537
#	225462
#
# Disc length: 3174 seconds
#
# Revision: 4
# Processed by: cddbd v1.4PL0 Copyright (c) Steve Scherf et al.
# Submitted via: Feurio! 1.66 - http://www.feurio.com
#
DISCID=a60c640e
DTITLE=Various Artist - The Best Of Blues
DYEAR=1900
DGENRE=Blues
TTITLE0=B.B. King - Guess Who
TTITLE1=Otis Rush and Little Walter - It's Hard For Me To Believe Baby
TTITLE2=Jimmy Reed - Honest
TTITLE3=John Lee Hooker - Blues Before Sunrise
TTITLE4=Sonny Terry and Brownie McGhee  - Drinking In The Blues
TTITLE5=Muddy Waters - Diamonds
TTITLE6=Howlin' Wolf - Ain't Superstitious
TTITLE7=Big Joe Turner - How Long Blues
TTITLE8=Jeff Beck - I Ain't Got You
TTITLE9=Memphis Slim - Every Day I Have The Blues
TTITLE10=Elmore James  - Mean Mistreatin' Mama
TTITLE11=Nina Simone - Blues For Mama
TTITLE12=Howlin' Wolf - Highway 49
TTITLE13=Muddy Waters - Forty Days And Forty Nights
EXTD=
EXTT0=
EXTT1=
EXTT2=
EXTT3=
EXTT4=
EXTT5=
EXTT6=
EXTT7=
EXTT8=
EXTT9=
EXTT10=
EXTT11=
EXTT12=
EXTT13=
PLAYORDER=
